<svg id="visual" viewBox="0 0 960 540" width="960" height="540" xmlns="http://www.w3.org/2000/svg" xmlns:xlink="http://www.w3.org/1999/xlink" version="1.1"><rect x="0" y="0" width="960" height="540" fill="#001220"></rect><defs><linearGradient id="grad1_0" x1="43.8%" y1="0%" x2="100%" y2="100%"><stop offset="14.444444444444446%" stop-color="#001220" stop-opacity="1"></stop><stop offset="85.55555555555554%" stop-color="#001220" stop-opacity="1"></stop></linearGradient></defs><defs><linearGradient id="grad2_0" x1="0%" y1="0%" x2="56.3%" y2="100%"><stop offset="14.444444444444446%" stop-color="#001220" stop-opacity="1"></stop><stop offset="85.55555555555554%" stop-color="#001220" stop-opacity="1"></stop></linearGradient></defs><g transform="translate(960, 0)"><path d="M0 297C-33.2 277.8 -66.3 258.6 -101.8 245.8C-137.2 232.9 -175 226.4 -205.8 205.8C-236.5 185.1 -260.3 150.3 -274.4 113.7C-288.4 77 -292.7 38.5 -297 0L0 0Z" fill="#FBAE3C"></path></g><g transform="translate(0, 540)"><path d="M0 -297C42 -295.7 84 -294.3 113.7 -274.4C143.3 -254.5 160.5 -216 188.1 -188.1C215.7 -160.2 253.6 -142.9 273.5 -113.3C293.3 -83.7 295.2 -41.8 297 0L0 0Z" fill="#FBAE3C"></path></g></svg>