<svg id="visual" viewBox="0 0 960 540" width="960" height="540" xmlns="http://www.w3.org/2000/svg" xmlns:xlink="http://www.w3.org/1999/xlink" version="1.1"><path d="M0 121L16 115.7C32 110.3 64 99.7 96 121.8C128 144 160 199 192 209.5C224 220 256 186 288 190.7C320 195.3 352 238.7 384 233.2C416 227.7 448 173.3 480 167.3C512 161.3 544 203.7 576 212C608 220.3 640 194.7 672 197C704 199.3 736 229.7 768 226.8C800 224 832 188 864 183.8C896 179.7 928 207.3 944 221.2L960 235L960 541L944 541C928 541 896 541 864 541C832 541 800 541 768 541C736 541 704 541 672 541C640 541 608 541 576 541C544 541 512 541 480 541C448 541 416 541 384 541C352 541 320 541 288 541C256 541 224 541 192 541C160 541 128 541 96 541C64 541 32 541 16 541L0 541Z" fill="#fcaf3c"></path><path d="M0 133L16 146.5C32 160 64 187 96 186.2C128 185.3 160 156.7 192 174C224 191.3 256 254.7 288 282.3C320 310 352 302 384 272.3C416 242.7 448 191.3 480 165.8C512 140.3 544 140.7 576 149.3C608 158 640 175 672 200.5C704 226 736 260 768 269C800 278 832 262 864 266.3C896 270.7 928 295.3 944 307.7L960 320L960 541L944 541C928 541 896 541 864 541C832 541 800 541 768 541C736 541 704 541 672 541C640 541 608 541 576 541C544 541 512 541 480 541C448 541 416 541 384 541C352 541 320 541 288 541C256 541 224 541 192 541C160 541 128 541 96 541C64 541 32 541 16 541L0 541Z" fill="#fba735"></path><path d="M0 239L16 229.2C32 219.3 64 199.7 96 203.3C128 207 160 234 192 246.5C224 259 256 257 288 238.3C320 219.7 352 184.3 384 197C416 209.7 448 270.3 480 282.5C512 294.7 544 258.3 576 263C608 267.7 640 313.3 672 320.8C704 328.3 736 297.7 768 275.8C800 254 832 241 864 249.8C896 258.7 928 289.3 944 304.7L960 320L960 541L944 541C928 541 896 541 864 541C832 541 800 541 768 541C736 541 704 541 672 541C640 541 608 541 576 541C544 541 512 541 480 541C448 541 416 541 384 541C352 541 320 541 288 541C256 541 224 541 192 541C160 541 128 541 96 541C64 541 32 541 16 541L0 541Z" fill="#fba02e"></path><path d="M0 364L16 346.2C32 328.3 64 292.7 96 289.8C128 287 160 317 192 332.5C224 348 256 349 288 335.2C320 321.3 352 292.7 384 282.8C416 273 448 282 480 279.2C512 276.3 544 261.7 576 262C608 262.3 640 277.7 672 275C704 272.3 736 251.7 768 251.7C800 251.7 832 272.3 864 269.3C896 266.3 928 239.7 944 226.3L960 213L960 541L944 541C928 541 896 541 864 541C832 541 800 541 768 541C736 541 704 541 672 541C640 541 608 541 576 541C544 541 512 541 480 541C448 541 416 541 384 541C352 541 320 541 288 541C256 541 224 541 192 541C160 541 128 541 96 541C64 541 32 541 16 541L0 541Z" fill="#fa9827"></path><path d="M0 384L16 384.8C32 385.7 64 387.3 96 392.3C128 397.3 160 405.7 192 404.8C224 404 256 394 288 373.5C320 353 352 322 384 329.2C416 336.3 448 381.7 480 389.2C512 396.7 544 366.3 576 357.8C608 349.3 640 362.7 672 351.5C704 340.3 736 304.7 768 295C800 285.3 832 301.7 864 306.5C896 311.3 928 304.7 944 301.3L960 298L960 541L944 541C928 541 896 541 864 541C832 541 800 541 768 541C736 541 704 541 672 541C640 541 608 541 576 541C544 541 512 541 480 541C448 541 416 541 384 541C352 541 320 541 288 541C256 541 224 541 192 541C160 541 128 541 96 541C64 541 32 541 16 541L0 541Z" fill="#fa9021"></path><path d="M0 425L16 409.8C32 394.7 64 364.3 96 361.5C128 358.7 160 383.3 192 381C224 378.7 256 349.3 288 335.7C320 322 352 324 384 340.2C416 356.3 448 386.7 480 387.2C512 387.7 544 358.3 576 359.8C608 361.3 640 393.7 672 415C704 436.3 736 446.7 768 431.2C800 415.7 832 374.3 864 374C896 373.7 928 414.3 944 434.7L960 455L960 541L944 541C928 541 896 541 864 541C832 541 800 541 768 541C736 541 704 541 672 541C640 541 608 541 576 541C544 541 512 541 480 541C448 541 416 541 384 541C352 541 320 541 288 541C256 541 224 541 192 541C160 541 128 541 96 541C64 541 32 541 16 541L0 541Z" fill="#f9881b"></path><path d="M0 390L16 398C32 406 64 422 96 424.5C128 427 160 416 192 406.7C224 397.3 256 389.7 288 403.2C320 416.7 352 451.3 384 453.5C416 455.7 448 425.3 480 415.8C512 406.3 544 417.7 576 425.2C608 432.7 640 436.3 672 427.3C704 418.3 736 396.7 768 402.8C800 409 832 443 864 461.2C896 479.3 928 481.7 944 482.8L960 484L960 541L944 541C928 541 896 541 864 541C832 541 800 541 768 541C736 541 704 541 672 541C640 541 608 541 576 541C544 541 512 541 480 541C448 541 416 541 384 541C352 541 320 541 288 541C256 541 224 541 192 541C160 541 128 541 96 541C64 541 32 541 16 541L0 541Z" fill="#f88015"></path><path d="M0 508L16 500.3C32 492.7 64 477.3 96 479.7C128 482 160 502 192 512.3C224 522.7 256 523.3 288 515.3C320 507.3 352 490.7 384 478.5C416 466.3 448 458.7 480 454.2C512 449.7 544 448.3 576 451.3C608 454.3 640 461.7 672 461.2C704 460.7 736 452.3 768 461.2C800 470 832 496 864 508.5C896 521 928 520 944 519.5L960 519L960 541L944 541C928 541 896 541 864 541C832 541 800 541 768 541C736 541 704 541 672 541C640 541 608 541 576 541C544 541 512 541 480 541C448 541 416 541 384 541C352 541 320 541 288 541C256 541 224 541 192 541C160 541 128 541 96 541C64 541 32 541 16 541L0 541Z" fill="#f7770f"></path></svg>