<svg id="visual" viewBox="0 0 960 540" width="960" height="540" xmlns="http://www.w3.org/2000/svg" xmlns:xlink="http://www.w3.org/1999/xlink" version="1.1"><g stroke-width="1" stroke-linejoin="bevel"><path d="M531.3 248L625 194L560.3 183Z" fill="#001122" stroke="#001122"></path><path d="M531.3 248L669 274L625 194Z" fill="#46295a" stroke="#46295a"></path><path d="M728.7 76L601 118L625 194Z" fill="#c83459" stroke="#c83459"></path><path d="M625 194L601 118L560.3 183Z" fill="#46295a" stroke="#46295a"></path><path d="M601 118L526.3 112L560.3 183Z" fill="#46295a" stroke="#46295a"></path><path d="M560.3 183L405.7 142L531.3 248Z" fill="#c83459" stroke="#c83459"></path><path d="M531.3 248L639 380L669 274Z" fill="#ab2d63" stroke="#ab2d63"></path><path d="M531.3 248L541.3 397L639 380Z" fill="#46295a" stroke="#46295a"></path><path d="M405.7 142L418.7 294L531.3 248Z" fill="#672c64" stroke="#672c64"></path><path d="M531.3 248L418.7 294L541.3 397Z" fill="#8a2c67" stroke="#8a2c67"></path><path d="M519.3 0L451.7 102L526.3 112Z" fill="#f05b34" stroke="#f05b34"></path><path d="M526.3 112L451.7 102L560.3 183Z" fill="#e04349" stroke="#e04349"></path><path d="M639 380L733.7 359L669 274Z" fill="#0f1c37" stroke="#0f1c37"></path><path d="M669 274L767.7 144L625 194Z" fill="#8a2c67" stroke="#8a2c67"></path><path d="M733.7 359L776.7 278L669 274Z" fill="#672c64" stroke="#672c64"></path><path d="M451.7 102L405.7 142L560.3 183Z" fill="#f7770f" stroke="#f7770f"></path><path d="M776.7 278L767.7 144L669 274Z" fill="#28244b" stroke="#28244b"></path><path d="M767.7 144L728.7 76L625 194Z" fill="#e04349" stroke="#e04349"></path><path d="M601 118L519.3 0L526.3 112Z" fill="#672c64" stroke="#672c64"></path><path d="M541.3 397L642 440L639 380Z" fill="#8a2c67" stroke="#8a2c67"></path><path d="M639 380L642 440L733.7 359Z" fill="#8a2c67" stroke="#8a2c67"></path><path d="M418.7 294L423.7 389L541.3 397Z" fill="#46295a" stroke="#46295a"></path><path d="M541.3 397L557.3 486L642 440Z" fill="#001122" stroke="#001122"></path><path d="M318 338L423.7 389L418.7 294Z" fill="#e04349" stroke="#e04349"></path><path d="M671 0L519.3 0L601 118Z" fill="#672c64" stroke="#672c64"></path><path d="M291 70L352 157L405.7 142Z" fill="#28244b" stroke="#28244b"></path><path d="M391.7 0L405.7 142L451.7 102Z" fill="#0f1c37" stroke="#0f1c37"></path><path d="M405.7 142L334 235L418.7 294Z" fill="#c83459" stroke="#c83459"></path><path d="M728.7 76L671 0L601 118Z" fill="#8a2c67" stroke="#8a2c67"></path><path d="M352 157L334 235L405.7 142Z" fill="#e04349" stroke="#e04349"></path><path d="M416.7 461L557.3 486L541.3 397Z" fill="#46295a" stroke="#46295a"></path><path d="M642 440L762.7 442L733.7 359Z" fill="#672c64" stroke="#672c64"></path><path d="M885.3 361L882.3 273L776.7 278Z" fill="#28244b" stroke="#28244b"></path><path d="M764.7 540L762.7 442L642 440Z" fill="#c83459" stroke="#c83459"></path><path d="M300 413L416.7 461L423.7 389Z" fill="#0f1c37" stroke="#0f1c37"></path><path d="M423.7 389L416.7 461L541.3 397Z" fill="#8a2c67" stroke="#8a2c67"></path><path d="M882.3 273L870.3 215L776.7 278Z" fill="#f7770f" stroke="#f7770f"></path><path d="M776.7 278L870.3 215L767.7 144Z" fill="#8a2c67" stroke="#8a2c67"></path><path d="M874.3 89L767.7 0L728.7 76Z" fill="#46295a" stroke="#46295a"></path><path d="M728.7 76L767.7 0L671 0Z" fill="#8a2c67" stroke="#8a2c67"></path><path d="M334 235L318 338L418.7 294Z" fill="#672c64" stroke="#672c64"></path><path d="M874.3 89L728.7 76L767.7 144Z" fill="#f7770f" stroke="#f7770f"></path><path d="M885.3 361L776.7 278L733.7 359Z" fill="#e04349" stroke="#e04349"></path><path d="M519.3 0L391.7 0L451.7 102Z" fill="#f7770f" stroke="#f7770f"></path><path d="M408.7 540L572.3 540L557.3 486Z" fill="#28244b" stroke="#28244b"></path><path d="M557.3 486L603 540L642 440Z" fill="#001122" stroke="#001122"></path><path d="M572.3 540L603 540L557.3 486Z" fill="#f7770f" stroke="#f7770f"></path><path d="M870.3 215L874.3 89L767.7 144Z" fill="#f7770f" stroke="#f7770f"></path><path d="M960 115L874.3 89L870.3 215Z" fill="#28244b" stroke="#28244b"></path><path d="M876.3 418L885.3 361L733.7 359Z" fill="#f7770f" stroke="#f7770f"></path><path d="M391.7 0L291 70L405.7 142Z" fill="#0f1c37" stroke="#0f1c37"></path><path d="M222.3 165L232.3 236L334 235Z" fill="#ab2d63" stroke="#ab2d63"></path><path d="M334 235L232.3 236L318 338Z" fill="#8a2c67" stroke="#8a2c67"></path><path d="M246.3 388L300 413L318 338Z" fill="#672c64" stroke="#672c64"></path><path d="M318 338L300 413L423.7 389Z" fill="#e04349" stroke="#e04349"></path><path d="M416.7 461L408.7 540L557.3 486Z" fill="#001122" stroke="#001122"></path><path d="M890.3 540L876.3 418L762.7 442Z" fill="#46295a" stroke="#46295a"></path><path d="M762.7 442L876.3 418L733.7 359Z" fill="#46295a" stroke="#46295a"></path><path d="M222.3 165L334 235L352 157Z" fill="#e04349" stroke="#e04349"></path><path d="M323 540L408.7 540L416.7 461Z" fill="#672c64" stroke="#672c64"></path><path d="M603 540L764.7 540L642 440Z" fill="#ab2d63" stroke="#ab2d63"></path><path d="M874.3 89L867.3 0L767.7 0Z" fill="#46295a" stroke="#46295a"></path><path d="M234.3 115L222.3 165L352 157Z" fill="#c83459" stroke="#c83459"></path><path d="M291 70L234.3 115L352 157Z" fill="#0f1c37" stroke="#0f1c37"></path><path d="M232.3 236L246.3 388L318 338Z" fill="#672c64" stroke="#672c64"></path><path d="M300 413L323 540L416.7 461Z" fill="#0f1c37" stroke="#0f1c37"></path><path d="M175.3 477L246.3 388L110.7 328Z" fill="#0f1c37" stroke="#0f1c37"></path><path d="M960 369L960 251L882.3 273Z" fill="#f7770f" stroke="#f7770f"></path><path d="M882.3 273L960 251L870.3 215Z" fill="#e04349" stroke="#e04349"></path><path d="M874.3 89L960 0L867.3 0Z" fill="#f05b34" stroke="#f05b34"></path><path d="M960 369L882.3 273L885.3 361Z" fill="#8a2c67" stroke="#8a2c67"></path><path d="M960 251L960 205L870.3 215Z" fill="#e04349" stroke="#e04349"></path><path d="M391.7 0L282 0L291 70Z" fill="#ab2d63" stroke="#ab2d63"></path><path d="M291 70L225.3 0L234.3 115Z" fill="#c83459" stroke="#c83459"></path><path d="M960 205L960 115L870.3 215Z" fill="#672c64" stroke="#672c64"></path><path d="M960 456L960 369L876.3 418Z" fill="#c83459" stroke="#c83459"></path><path d="M876.3 418L960 369L885.3 361Z" fill="#8a2c67" stroke="#8a2c67"></path><path d="M251.3 540L323 540L300 413Z" fill="#e04349" stroke="#e04349"></path><path d="M282 0L225.3 0L291 70Z" fill="#ab2d63" stroke="#ab2d63"></path><path d="M234.3 115L130.7 112L222.3 165Z" fill="#e04349" stroke="#e04349"></path><path d="M764.7 540L890.3 540L762.7 442Z" fill="#0f1c37" stroke="#0f1c37"></path><path d="M890.3 540L960 456L876.3 418Z" fill="#e04349" stroke="#e04349"></path><path d="M960 115L960 0L874.3 89Z" fill="#f7770f" stroke="#f7770f"></path><path d="M175.3 477L251.3 540L300 413Z" fill="#001122" stroke="#001122"></path><path d="M175.3 477L300 413L246.3 388Z" fill="#e04349" stroke="#e04349"></path><path d="M225.3 0L130.7 112L234.3 115Z" fill="#46295a" stroke="#46295a"></path><path d="M222.3 165L89.7 248L232.3 236Z" fill="#8a2c67" stroke="#8a2c67"></path><path d="M110.7 328L246.3 388L232.3 236Z" fill="#001122" stroke="#001122"></path><path d="M89.7 248L110.7 328L232.3 236Z" fill="#f05b34" stroke="#f05b34"></path><path d="M890.3 540L960 540L960 456Z" fill="#f05b34" stroke="#f05b34"></path><path d="M73.7 195L89.7 248L222.3 165Z" fill="#c83459" stroke="#c83459"></path><path d="M130.7 112L73.7 195L222.3 165Z" fill="#ab2d63" stroke="#ab2d63"></path><path d="M86.7 483L175.3 477L110.7 328Z" fill="#46295a" stroke="#46295a"></path><path d="M225.3 0L103.7 0L130.7 112Z" fill="#ab2d63" stroke="#ab2d63"></path><path d="M0 102L0 186L73.7 195Z" fill="#f05b34" stroke="#f05b34"></path><path d="M86.7 483L110.7 328L0 469Z" fill="#8a2c67" stroke="#8a2c67"></path><path d="M86.7 483L134.7 540L175.3 477Z" fill="#46295a" stroke="#46295a"></path><path d="M175.3 477L134.7 540L251.3 540Z" fill="#28244b" stroke="#28244b"></path><path d="M0 307L110.7 328L89.7 248Z" fill="#ab2d63" stroke="#ab2d63"></path><path d="M0 102L73.7 195L130.7 112Z" fill="#0f1c37" stroke="#0f1c37"></path><path d="M73.7 195L0 186L89.7 248Z" fill="#8a2c67" stroke="#8a2c67"></path><path d="M0 186L0 307L89.7 248Z" fill="#001122" stroke="#001122"></path><path d="M0 307L0 323L110.7 328Z" fill="#f7770f" stroke="#f7770f"></path><path d="M103.7 0L0 102L130.7 112Z" fill="#e04349" stroke="#e04349"></path><path d="M103.7 0L0 0L0 102Z" fill="#8a2c67" stroke="#8a2c67"></path><path d="M0 323L0 469L110.7 328Z" fill="#8a2c67" stroke="#8a2c67"></path><path d="M86.7 483L0 540L134.7 540Z" fill="#001122" stroke="#001122"></path><path d="M0 469L0 540L86.7 483Z" fill="#f05b34" stroke="#f05b34"></path></g></svg>