<svg id="visual" viewBox="0 0 960 540" width="960" height="540" xmlns="http://www.w3.org/2000/svg" xmlns:xlink="http://www.w3.org/1999/xlink" version="1.1"><path d="M0 44L87 71L175 87L262 82L349 33L436 77L524 39L611 44L698 82L785 71L873 50L960 50L960 0L873 0L785 0L698 0L611 0L524 0L436 0L349 0L262 0L175 0L87 0L0 0Z" fill="#001122"></path><path d="M0 136L87 125L175 201L262 158L349 174L436 185L524 98L611 201L698 131L785 206L873 185L960 104L960 48L873 48L785 69L698 80L611 42L524 37L436 75L349 31L262 80L175 85L87 69L0 42Z" fill="#362753"></path><path d="M0 217L87 298L175 363L262 368L349 368L436 336L524 368L611 368L698 228L785 293L873 287L960 282L960 102L873 183L785 204L698 129L611 199L524 96L436 183L349 172L262 156L175 199L87 123L0 134Z" fill="#8a2c67"></path><path d="M0 287L87 401L175 433L262 460L349 433L436 433L524 438L611 428L698 309L785 330L873 395L960 320L960 280L873 285L785 291L698 226L611 366L524 366L436 334L349 366L262 366L175 361L87 296L0 215Z" fill="#d53a52"></path><path d="M0 541L87 541L175 541L262 541L349 541L436 541L524 541L611 541L698 541L785 541L873 541L960 541L960 318L873 393L785 328L698 307L611 426L524 436L436 431L349 431L262 458L175 431L87 399L0 285Z" fill="#f7770f"></path></svg>